<svg width="100" height="100" viewBox="0 0 100 100" fill="none" xmlns="http://www.w3.org/2000/svg">
<g clip-path="url(#clip0)">
<path d="M42.3975 28.2509L47.2383 23.2881C48.6372 21.8488 48.6372 19.5567 47.2383 18.1166C46.5699 17.4322 45.6541 17.0467 44.6979 17.0467C43.7417 17.0467 42.8259 17.4322 42.1576 18.1166L47.2383 12.945C48.6397 11.5056 48.6397 9.21278 47.2383 7.77342C46.5699 7.0891 45.6541 6.70359 44.6979 6.70359C43.7417 6.70359 42.8259 7.0891 42.1576 7.77342L39.608 10.3592V3.46378C39.6358 2.23571 38.9969 1.08927 37.9372 0.466397C36.8783 -0.155639 35.5652 -0.155639 34.5063 0.466397C33.4466 1.08927 32.8077 2.23571 32.8355 3.46378V10.3592L30.3044 7.78184C29.6344 7.09499 28.7152 6.7078 27.7557 6.7078C26.7961 6.7078 25.8769 7.09499 25.2069 7.78184C23.8046 9.21783 23.7954 11.5073 25.1867 12.9534L29.748 17.6654C28.3222 16.6991 26.4089 16.8944 25.2069 18.1267C24.6985 18.6468 24.3576 19.3076 24.2297 20.0231C23.9999 21.2023 24.3559 22.4195 25.185 23.2881L31.0216 29.3216C30.7716 29.0666 30.5048 28.7922 30.2405 28.5152C29.5839 27.8259 28.6757 27.4328 27.7237 27.4269C26.7717 27.421 25.8584 27.8031 25.1935 28.4841C23.8029 29.9058 23.8029 32.1784 25.1935 33.6001L36.3068 44.8363L47.2383 33.6313C48.6372 32.1919 48.6372 29.8999 47.2383 28.4597C45.9319 27.1247 43.8133 27.033 42.3975 28.2509Z" fill="#70942D"/>
<path d="M41.3892 18.9784H60.3516V72.4179H41.3892V18.9784Z" fill="#63A6D3"/>
<path d="M60.3516 72.4179H77.5901V18.9784L68.9708 10.3591L60.3516 18.9784V72.4179Z" fill="#4092C9"/>
<path d="M41.3892 18.9784L50.0084 10.3591H68.9708L60.3516 18.9784H41.3892Z" fill="#579FD0"/>
<path d="M50.0085 3.4637H68.9709V10.3591H50.0085V3.4637Z" fill="#D6D9DB"/>
<path d="M41.3892 50.8697V72.4179H60.3516V31.9073L41.3892 50.8697Z" fill="#579FD0"/>
<path d="M87.0554 0.0159874C90.2237 0.0732248 93.1638 1.67503 94.9289 4.30711C96.6932 6.93834 97.0602 10.2665 95.9112 13.2193L77.9538 61.0201C76.5902 64.7396 73.06 67.2219 69.098 67.2463C65.9306 67.1891 62.9905 65.5873 61.2254 62.956C59.4603 60.324 59.0933 56.9958 60.2431 54.043L78.1988 6.24223C79.5632 2.52265 83.0934 0.0412391 87.0554 0.0159874Z" fill="#D68033"/>
<path d="M60.2431 54.043C59.0933 56.9958 59.4603 60.324 61.2254 62.9561C62.9905 65.5873 65.9306 67.1891 69.098 67.2463C73.06 67.2219 76.5903 64.7397 77.9538 61.0201L89.6033 30.0109C82.516 35.4417 74.1838 39.0157 65.3641 40.4096L60.2431 54.043Z" fill="#D17726"/>
<path d="M81.0033 14.3396L84.2818 13.2723L87.6487 23.6163L84.3702 24.6828L81.0033 14.3396Z" fill="#C96E23"/>
<path d="M75.9504 26.4083L79.2281 25.341L82.5959 35.6841L79.3182 36.7514L75.9504 26.4083Z" fill="#C96E23"/>
<path d="M17.9749 16.3362L21.0236 14.7252L27.3988 26.793L24.3501 28.4032L17.9749 16.3362Z" fill="#88B337"/>
<path d="M12.6517 21.4783L14.964 18.9212L24.7322 27.7559L22.4191 30.3131L12.6517 21.4783Z" fill="#88B337"/>
<path d="M47.505 65.4678C45.9958 66.4728 43.9681 66.1563 42.8368 64.738L21.2886 37.6959C19.8762 36.0334 19.2357 33.85 19.5269 31.6876C19.8181 29.5261 21.0134 27.5893 22.8164 26.3603C24.616 25.144 26.8524 24.7636 28.9534 25.3158C31.0543 25.8679 32.8144 27.2997 33.7832 29.2441L48.7306 61.0765C49.4663 62.6412 48.9461 64.509 47.5067 65.4678H47.505Z" fill="#FF7230"/>
<path d="M27.4637 33.5899L21.6179 38.1117L23.766 40.8077L29.5739 36.3171L27.4637 33.5899Z" fill="#DE5718"/>
<path d="M32.2059 40.7555L26.9863 44.848L29.1361 47.5466L34.3346 43.4709L32.2059 40.7555Z" fill="#DE5718"/>
<path d="M56.9039 42.2505C56.9039 47.4868 52.6591 51.7317 47.4227 51.7317C42.1864 51.7317 37.9415 47.4868 37.9415 42.2505C37.9415 37.0141 42.1864 32.7692 47.4227 32.7692C52.6591 32.7692 56.9039 37.0141 56.9039 42.2505Z" fill="#FF9B30"/>
<path d="M51.7027 33.8037C52.4847 37.3592 51.4333 41.0695 48.9023 43.6864C46.372 46.3034 42.6979 47.4784 39.1189 46.8151C41.0734 50.3967 45.1002 52.3259 49.1161 51.6045C53.1328 50.884 56.2371 47.6737 56.8237 43.6359C57.4104 39.5982 55.3474 35.6378 51.7027 33.8037Z" fill="#F28E22"/>
<path d="M65.5231 41.3885L60.3516 44.8362L55.18 41.3885L50.0085 44.8362L44.8369 41.3885L39.6653 44.8362L34.4938 41.3885L29.3222 44.8362L24.1506 41.3885V93.1042C24.1506 96.9121 27.2372 99.9996 31.0461 99.9996H70.6947V44.8362L65.5231 41.3885Z" fill="#F0AE62"/>
<path d="M81.0377 44.8362L75.8661 41.3885L70.6946 44.8362V99.9996H79.3139C83.1218 99.9996 86.2093 96.9121 86.2093 93.1042V41.3885L81.0377 44.8362Z" fill="#E6994E"/>
<path d="M30.9956 96.6521L31.5974 95.445C33.5014 91.6371 34.4929 87.4377 34.4938 83.1802C34.5072 80.6887 33.2446 78.363 31.1471 77.0179C29.0495 75.672 26.4098 75.4936 24.1506 76.5449V93.1042C24.1523 95.8154 25.7457 98.2724 28.2204 99.381C29.4215 98.8018 30.3971 97.8431 30.9956 96.6521Z" fill="#EDA047"/>
<path d="M18.9792 81.0372H15.5314V74.1418C15.5314 72.2378 13.9877 70.6941 12.0837 70.6941V67.2463C15.8917 67.2463 18.9792 70.3338 18.9792 74.1418V81.0372Z" fill="#965735"/>
<path d="M22.1322 99.9996C21.1919 99.9996 20.2644 99.7807 19.4235 99.3598L17.2552 98.2757L15.0861 99.3598C14.2452 99.7807 13.3184 99.9996 12.3782 99.9996C10.0845 99.9996 7.98779 98.7033 6.96173 96.652L6.35989 95.445C4.45591 91.637 3.46436 87.4377 3.46436 83.1802C3.46351 79.1399 6.73867 75.8648 10.7781 75.8656C12.7183 75.8656 14.5785 76.6366 15.9497 78.0086L17.2552 79.3133L18.5599 78.0086C19.9319 76.6366 21.7921 75.8656 23.7314 75.8656C27.7717 75.8648 31.0469 79.1399 31.046 83.1802C31.046 87.4393 30.0545 91.6404 28.1497 95.45L27.5478 96.6571C26.5209 98.7067 24.4242 100 22.1322 99.9996Z" fill="#E3584B"/>
<path d="M27.7153 77.0567C23.6506 88.7634 12.8681 94.6125 7.14771 96.9677C8.74025 99.7445 12.2242 100.795 15.086 99.3598L17.2551 98.2757L19.4234 99.3598C22.4149 100.856 26.0529 99.6443 27.5478 96.652L28.1496 95.445C30.0536 91.637 31.0451 87.4376 31.046 83.1802C31.0451 80.7064 29.791 78.4017 27.7153 77.0567Z" fill="#D64740"/>
</g>
<defs>
<clipPath id="clip0">
<rect width="100" height="100" fill="white"/>
</clipPath>
</defs>
</svg>
