<svg width="100" height="100" viewBox="0 0 100 100" fill="none" xmlns="http://www.w3.org/2000/svg">
<path d="M100 50C100 77.6146 77.6146 100 50 100C22.3854 100 0 77.6146 0 50C0 22.3854 22.3854 0 50 0C77.6146 0 100 22.3854 100 50Z" fill="#FE6A16"/>
<path d="M66.3322 97.2687C85.926 90.4999 100 71.8948 100 50C100 49.588 99.9946 49.1768 99.9847 48.7671L71.3989 20.1828L26.1848 51.1719L40.2122 65.1993L36.5715 67.5079L66.3322 97.2687Z" fill="#F24500"/>
<path d="M57.5196 72.9774V67.9688H42.4805V72.9774C42.4805 75.2472 41.0607 77.2751 38.9283 78.0518L15.8036 86.4731C24.746 94.8608 36.7722 100 50.0001 100C63.2279 100 75.2541 94.8608 84.1965 86.4731L61.0718 78.0518C58.9394 77.2751 57.5196 75.2472 57.5196 72.9774Z" fill="#FFBEAA"/>
<path d="M84.1965 86.4731L61.0718 78.0518C58.9394 77.2751 57.5196 75.2472 57.5196 72.9774V67.9688H49.9161V99.9992C49.9444 99.9992 49.9718 100 50.0001 100C63.2279 100 75.2541 94.8608 84.1965 86.4731Z" fill="#FAA68E"/>
<path d="M75.4692 46.8559C75.4692 50.4234 72.5777 53.3157 69.0102 53.3157C65.4434 53.3157 62.5511 50.4234 62.5511 46.8559C62.5511 43.2892 65.4434 40.3969 69.0102 40.3969C72.5777 40.3969 75.4692 43.2892 75.4692 46.8559Z" fill="#FFBEAA"/>
<path d="M37.4489 46.8559C37.4489 50.4234 34.5565 53.3157 30.9898 53.3157C27.4223 53.3157 24.5308 50.4234 24.5308 46.8559C24.5308 43.2892 27.4223 40.3969 30.9898 40.3969C34.5565 40.3969 37.4489 43.2892 37.4489 46.8559Z" fill="#FFBEAA"/>
<path d="M58.5999 71.0381L54.287 73.2536C51.5961 74.6361 48.404 74.6361 45.7131 73.2536L41.4002 71.0381C35.0083 67.7544 30.9899 61.1725 30.9899 53.9864V37.175C30.9899 26.6754 39.5005 18.1641 50 18.1641C60.4996 18.1641 69.0102 26.6754 69.0102 37.1742V53.9864C69.0102 61.1725 64.9918 67.7544 58.5999 71.0381Z" fill="#FFCDBE"/>
<path d="M50.0001 18.1641C49.9718 18.1641 49.9444 18.1648 49.9161 18.1648V74.2874C51.4146 74.3012 52.916 73.9578 54.287 73.2536L58.5999 71.0381C64.9918 67.7544 69.0102 61.1725 69.0102 53.9864V37.1742C69.0102 26.6754 60.4996 18.1641 50.0001 18.1641Z" fill="#FFBEAA"/>
<path d="M25.3906 15.9508V32.65C25.3906 35.9032 26.783 38.8313 29.0039 40.8722V50.293C29.0039 52.4506 30.7526 54.1992 32.9102 54.1992V43.203C34.053 43.5974 35.2791 43.8148 36.5562 43.8148H46.582C52.7481 43.8148 57.7477 38.8161 57.7477 32.6492V17.9031C57.7477 16.8251 56.8733 15.95 55.7945 15.95H25.3906V15.9508Z" fill="#414952"/>
<path d="M61.3785 15.9508H59.4079C58.6098 15.9508 57.9148 16.3803 57.5341 17.0189C57.2114 16.3857 56.5545 15.9508 55.7946 15.9508H49.9161V43.3083C53.4569 42.202 56.2394 39.3806 57.2915 35.817C57.821 40.3206 61.6486 43.8156 66.2942 43.8156C66.5627 43.8156 66.8275 43.8011 67.0899 43.7782V54.1992C69.2475 54.1992 70.9962 52.4506 70.9962 50.293V42.5026C73.6138 40.9119 75.3617 38.0341 75.3617 34.7473V29.9332C75.3617 22.2107 69.1018 15.9508 61.3785 15.9508Z" fill="#333940"/>
<path d="M65.0391 78.7109L49.9352 86.0023L34.961 78.7109L15.2115 85.9085C24.2112 94.6297 36.4777 100 50.0001 100C63.3423 100 75.4632 94.7731 84.4292 86.2564L65.0391 78.7109Z" fill="#C8FFFA"/>
<path d="M50 100C63.3423 100 75.4631 94.7731 84.4292 86.2564L65.0391 78.7109L49.9352 86.0023L50 100Z" fill="#9BF5F0"/>
<path d="M53.141 94.3687H46.859L44.9059 86.1328H55.0942L53.141 94.3687Z" fill="#4A7AFF"/>
<path d="M46.1174 99.8497C47.3992 99.9489 48.6931 100 50 100C51.3069 100 52.6009 99.9481 53.8826 99.8497L53.1411 94.368H46.8582L46.1174 99.8497Z" fill="#2864F0"/>
<path d="M60.6117 76.4977L50.0648 86.0023L55.3383 93.2945L65.039 78.7109L60.6117 76.4977Z" fill="#E9EDF5"/>
<path d="M39.3883 76.4977L49.9352 86.0023L44.6617 93.2945L34.9609 78.7109L39.3883 76.4977Z" fill="white"/>
<path d="M84.6069 86.0863L65.039 78.7109L58.1917 99.3286C68.3578 97.6524 77.4894 92.9131 84.6069 86.0863Z" fill="#27488F"/>
<path d="M58.1917 99.3286C60.7528 98.9059 63.2484 98.2903 65.6624 97.4945L65.039 94.368L70.0126 92.8711V80.5855L65.039 78.7109L58.1917 99.3286Z" fill="#12254C"/>
<path d="M15.2115 85.9085L34.961 78.7109L41.8084 99.3286C31.6422 97.6524 22.4366 92.8955 15.2115 85.9085Z" fill="#27488F"/>
<path d="M41.8083 99.3286C39.2471 98.9059 36.7515 98.2903 34.3376 97.4945L34.9609 94.368L29.9873 92.8711V80.5855L34.9609 78.7109L41.8083 99.3286Z" fill="#1B3B6B"/>
</svg>
